<mxfile host="app.diagrams.net" agent="Mozilla/5.0 (Windows NT 10.0; Win64; x64) AppleWebKit/537.36 (KHTML, like Gecko) Chrome/133.0.0.0 Safari/537.36 Edg/133.0.0.0" version="26.0.14">
  <diagram name="PÃ¡gina-1" id="WAFiXAsMAz0UJ1M0hnzs">
    <mxGraphModel dx="1050" dy="569" grid="1" gridSize="10" guides="1" tooltips="1" connect="1" arrows="1" fold="1" page="1" pageScale="1" pageWidth="827" pageHeight="1169" math="0" shadow="0">
      <root>
        <mxCell id="0" />
        <mxCell id="1" parent="0" />
        <mxCell id="Kp8BGL8UJKe5xmwrFvUl-74" style="edgeStyle=orthogonalEdgeStyle;rounded=0;orthogonalLoop=1;jettySize=auto;html=1;entryX=0.5;entryY=0;entryDx=0;entryDy=0;" parent="1" source="Kp8BGL8UJKe5xmwrFvUl-1" target="Kp8BGL8UJKe5xmwrFvUl-71" edge="1">
          <mxGeometry relative="1" as="geometry" />
        </mxCell>
        <mxCell id="Kp8BGL8UJKe5xmwrFvUl-1" value="Clientes" style="rounded=0;whiteSpace=wrap;html=1;" parent="1" vertex="1">
          <mxGeometry x="120" y="80" width="120" height="60" as="geometry" />
        </mxCell>
        <mxCell id="Kp8BGL8UJKe5xmwrFvUl-132" style="edgeStyle=orthogonalEdgeStyle;rounded=0;orthogonalLoop=1;jettySize=auto;html=1;entryX=0.5;entryY=0;entryDx=0;entryDy=0;" parent="1" source="Kp8BGL8UJKe5xmwrFvUl-2" target="Kp8BGL8UJKe5xmwrFvUl-131" edge="1">
          <mxGeometry relative="1" as="geometry" />
        </mxCell>
        <mxCell id="Kp8BGL8UJKe5xmwrFvUl-2" value="Pedidos" style="rounded=0;whiteSpace=wrap;html=1;" parent="1" vertex="1">
          <mxGeometry x="300" y="240" width="120" height="60" as="geometry" />
        </mxCell>
        <mxCell id="Kp8BGL8UJKe5xmwrFvUl-82" style="edgeStyle=orthogonalEdgeStyle;rounded=0;orthogonalLoop=1;jettySize=auto;html=1;entryX=1;entryY=0.5;entryDx=0;entryDy=0;" parent="1" source="Kp8BGL8UJKe5xmwrFvUl-3" target="Kp8BGL8UJKe5xmwrFvUl-80" edge="1">
          <mxGeometry relative="1" as="geometry" />
        </mxCell>
        <mxCell id="Kp8BGL8UJKe5xmwrFvUl-3" value="Mesas" style="rounded=0;whiteSpace=wrap;html=1;" parent="1" vertex="1">
          <mxGeometry x="610" y="90" width="120" height="60" as="geometry" />
        </mxCell>
        <mxCell id="Kp8BGL8UJKe5xmwrFvUl-119" style="edgeStyle=orthogonalEdgeStyle;rounded=0;orthogonalLoop=1;jettySize=auto;html=1;" parent="1" source="Kp8BGL8UJKe5xmwrFvUl-6" target="Kp8BGL8UJKe5xmwrFvUl-118" edge="1">
          <mxGeometry relative="1" as="geometry" />
        </mxCell>
        <mxCell id="Kp8BGL8UJKe5xmwrFvUl-6" value="Meseros" style="rounded=0;whiteSpace=wrap;html=1;" parent="1" vertex="1">
          <mxGeometry x="780" y="225" width="120" height="60" as="geometry" />
        </mxCell>
        <mxCell id="Kp8BGL8UJKe5xmwrFvUl-8" value="apellido" style="ellipse;whiteSpace=wrap;html=1;" parent="1" vertex="1">
          <mxGeometry width="80" height="50" as="geometry" />
        </mxCell>
        <mxCell id="Kp8BGL8UJKe5xmwrFvUl-10" value="telefono" style="ellipse;whiteSpace=wrap;html=1;" parent="1" vertex="1">
          <mxGeometry x="90" width="80" height="50" as="geometry" />
        </mxCell>
        <mxCell id="Kp8BGL8UJKe5xmwrFvUl-11" value="nombre" style="ellipse;whiteSpace=wrap;html=1;" parent="1" vertex="1">
          <mxGeometry y="60" width="80" height="50" as="geometry" />
        </mxCell>
        <mxCell id="Kp8BGL8UJKe5xmwrFvUl-12" value="&lt;u&gt;id&lt;/u&gt;" style="ellipse;whiteSpace=wrap;html=1;" parent="1" vertex="1">
          <mxGeometry y="120" width="80" height="50" as="geometry" />
        </mxCell>
        <mxCell id="Kp8BGL8UJKe5xmwrFvUl-13" value="direccion" style="ellipse;whiteSpace=wrap;html=1;" parent="1" vertex="1">
          <mxGeometry x="180" width="80" height="50" as="geometry" />
        </mxCell>
        <mxCell id="Kp8BGL8UJKe5xmwrFvUl-14" value="" style="endArrow=none;html=1;rounded=0;exitX=-0.015;exitY=0.39;exitDx=0;exitDy=0;exitPerimeter=0;entryX=1;entryY=0.5;entryDx=0;entryDy=0;" parent="1" source="Kp8BGL8UJKe5xmwrFvUl-1" target="Kp8BGL8UJKe5xmwrFvUl-11" edge="1">
          <mxGeometry width="50" height="50" relative="1" as="geometry">
            <mxPoint x="120" y="120" as="sourcePoint" />
            <mxPoint x="170" y="70" as="targetPoint" />
          </mxGeometry>
        </mxCell>
        <mxCell id="Kp8BGL8UJKe5xmwrFvUl-15" value="" style="endArrow=none;html=1;rounded=0;exitX=0;exitY=1;exitDx=0;exitDy=0;entryX=1;entryY=0.5;entryDx=0;entryDy=0;" parent="1" source="Kp8BGL8UJKe5xmwrFvUl-1" target="Kp8BGL8UJKe5xmwrFvUl-12" edge="1">
          <mxGeometry width="50" height="50" relative="1" as="geometry">
            <mxPoint x="130" y="130" as="sourcePoint" />
            <mxPoint x="180" y="80" as="targetPoint" />
          </mxGeometry>
        </mxCell>
        <mxCell id="Kp8BGL8UJKe5xmwrFvUl-16" value="" style="endArrow=none;html=1;rounded=0;exitX=0;exitY=0;exitDx=0;exitDy=0;entryX=1;entryY=1;entryDx=0;entryDy=0;" parent="1" source="Kp8BGL8UJKe5xmwrFvUl-1" target="Kp8BGL8UJKe5xmwrFvUl-8" edge="1">
          <mxGeometry width="50" height="50" relative="1" as="geometry">
            <mxPoint x="140" y="140" as="sourcePoint" />
            <mxPoint x="190" y="90" as="targetPoint" />
          </mxGeometry>
        </mxCell>
        <mxCell id="Kp8BGL8UJKe5xmwrFvUl-17" value="" style="endArrow=none;html=1;rounded=0;exitX=0.25;exitY=0;exitDx=0;exitDy=0;entryX=0.625;entryY=1;entryDx=0;entryDy=0;entryPerimeter=0;" parent="1" source="Kp8BGL8UJKe5xmwrFvUl-1" target="Kp8BGL8UJKe5xmwrFvUl-10" edge="1">
          <mxGeometry width="50" height="50" relative="1" as="geometry">
            <mxPoint x="150" y="150" as="sourcePoint" />
            <mxPoint x="200" y="100" as="targetPoint" />
          </mxGeometry>
        </mxCell>
        <mxCell id="Kp8BGL8UJKe5xmwrFvUl-18" value="" style="endArrow=none;html=1;rounded=0;exitX=0.75;exitY=0;exitDx=0;exitDy=0;entryX=0.5;entryY=1;entryDx=0;entryDy=0;" parent="1" source="Kp8BGL8UJKe5xmwrFvUl-1" target="Kp8BGL8UJKe5xmwrFvUl-13" edge="1">
          <mxGeometry width="50" height="50" relative="1" as="geometry">
            <mxPoint x="160" y="160" as="sourcePoint" />
            <mxPoint x="210" y="110" as="targetPoint" />
          </mxGeometry>
        </mxCell>
        <mxCell id="Kp8BGL8UJKe5xmwrFvUl-31" value="hora" style="ellipse;whiteSpace=wrap;html=1;" parent="1" vertex="1">
          <mxGeometry x="334" y="160" width="80" height="50" as="geometry" />
        </mxCell>
        <mxCell id="Kp8BGL8UJKe5xmwrFvUl-32" value="estado" style="ellipse;whiteSpace=wrap;html=1;" parent="1" vertex="1">
          <mxGeometry x="420" y="170" width="80" height="50" as="geometry" />
        </mxCell>
        <mxCell id="Kp8BGL8UJKe5xmwrFvUl-33" value="fecha" style="ellipse;whiteSpace=wrap;html=1;" parent="1" vertex="1">
          <mxGeometry x="250" y="160" width="80" height="50" as="geometry" />
        </mxCell>
        <mxCell id="Kp8BGL8UJKe5xmwrFvUl-34" value="&lt;u&gt;id&lt;/u&gt;" style="ellipse;whiteSpace=wrap;html=1;" parent="1" vertex="1">
          <mxGeometry x="190" y="215" width="80" height="50" as="geometry" />
        </mxCell>
        <mxCell id="Kp8BGL8UJKe5xmwrFvUl-36" value="&lt;u&gt;id&lt;/u&gt;" style="ellipse;whiteSpace=wrap;html=1;" parent="1" vertex="1">
          <mxGeometry x="570" y="20" width="80" height="50" as="geometry" />
        </mxCell>
        <mxCell id="Kp8BGL8UJKe5xmwrFvUl-38" value="numero de mesas" style="ellipse;whiteSpace=wrap;html=1;" parent="1" vertex="1">
          <mxGeometry x="660" y="20" width="80" height="50" as="geometry" />
        </mxCell>
        <mxCell id="Kp8BGL8UJKe5xmwrFvUl-39" value="capacidad" style="ellipse;whiteSpace=wrap;html=1;" parent="1" vertex="1">
          <mxGeometry x="747" y="50" width="80" height="50" as="geometry" />
        </mxCell>
        <mxCell id="Kp8BGL8UJKe5xmwrFvUl-40" value="" style="endArrow=none;html=1;rounded=0;exitX=0.25;exitY=0;exitDx=0;exitDy=0;entryX=0.74;entryY=0.932;entryDx=0;entryDy=0;entryPerimeter=0;" parent="1" source="Kp8BGL8UJKe5xmwrFvUl-3" target="Kp8BGL8UJKe5xmwrFvUl-36" edge="1">
          <mxGeometry width="50" height="50" relative="1" as="geometry">
            <mxPoint x="530" y="220" as="sourcePoint" />
            <mxPoint x="580" y="170" as="targetPoint" />
          </mxGeometry>
        </mxCell>
        <mxCell id="Kp8BGL8UJKe5xmwrFvUl-41" value="" style="endArrow=none;html=1;rounded=0;exitX=0.75;exitY=0;exitDx=0;exitDy=0;entryX=0.5;entryY=1;entryDx=0;entryDy=0;" parent="1" source="Kp8BGL8UJKe5xmwrFvUl-3" target="Kp8BGL8UJKe5xmwrFvUl-38" edge="1">
          <mxGeometry width="50" height="50" relative="1" as="geometry">
            <mxPoint x="540" y="230" as="sourcePoint" />
            <mxPoint x="590" y="180" as="targetPoint" />
          </mxGeometry>
        </mxCell>
        <mxCell id="Kp8BGL8UJKe5xmwrFvUl-42" value="" style="endArrow=none;html=1;rounded=0;exitX=1;exitY=0.25;exitDx=0;exitDy=0;entryX=0;entryY=1;entryDx=0;entryDy=0;" parent="1" source="Kp8BGL8UJKe5xmwrFvUl-3" target="Kp8BGL8UJKe5xmwrFvUl-39" edge="1">
          <mxGeometry width="50" height="50" relative="1" as="geometry">
            <mxPoint x="550" y="240" as="sourcePoint" />
            <mxPoint x="600" y="190" as="targetPoint" />
          </mxGeometry>
        </mxCell>
        <mxCell id="Kp8BGL8UJKe5xmwrFvUl-43" value="" style="endArrow=none;html=1;rounded=0;exitX=0.5;exitY=0;exitDx=0;exitDy=0;entryX=0.5;entryY=1;entryDx=0;entryDy=0;" parent="1" source="Kp8BGL8UJKe5xmwrFvUl-6" target="Kp8BGL8UJKe5xmwrFvUl-49" edge="1">
          <mxGeometry width="50" height="50" relative="1" as="geometry">
            <mxPoint x="515" y="260" as="sourcePoint" />
            <mxPoint x="565" y="210" as="targetPoint" />
          </mxGeometry>
        </mxCell>
        <mxCell id="Kp8BGL8UJKe5xmwrFvUl-44" value="" style="endArrow=none;html=1;rounded=0;exitX=1;exitY=0;exitDx=0;exitDy=0;entryX=0;entryY=1;entryDx=0;entryDy=0;" parent="1" source="Kp8BGL8UJKe5xmwrFvUl-6" target="Kp8BGL8UJKe5xmwrFvUl-48" edge="1">
          <mxGeometry width="50" height="50" relative="1" as="geometry">
            <mxPoint x="480" y="330" as="sourcePoint" />
            <mxPoint x="530" y="280" as="targetPoint" />
          </mxGeometry>
        </mxCell>
        <mxCell id="Kp8BGL8UJKe5xmwrFvUl-45" value="" style="endArrow=none;html=1;rounded=0;exitX=1;exitY=0.5;exitDx=0;exitDy=0;entryX=0;entryY=0.5;entryDx=0;entryDy=0;" parent="1" source="Kp8BGL8UJKe5xmwrFvUl-6" target="Kp8BGL8UJKe5xmwrFvUl-46" edge="1">
          <mxGeometry width="50" height="50" relative="1" as="geometry">
            <mxPoint x="560" y="380" as="sourcePoint" />
            <mxPoint x="610" y="330" as="targetPoint" />
          </mxGeometry>
        </mxCell>
        <mxCell id="Kp8BGL8UJKe5xmwrFvUl-46" value="apellido" style="ellipse;whiteSpace=wrap;html=1;" parent="1" vertex="1">
          <mxGeometry x="940" y="230" width="80" height="50" as="geometry" />
        </mxCell>
        <mxCell id="Kp8BGL8UJKe5xmwrFvUl-48" value="nombre" style="ellipse;whiteSpace=wrap;html=1;" parent="1" vertex="1">
          <mxGeometry x="910" y="160" width="80" height="50" as="geometry" />
        </mxCell>
        <mxCell id="Kp8BGL8UJKe5xmwrFvUl-49" value="&lt;u&gt;id&lt;/u&gt;" style="ellipse;whiteSpace=wrap;html=1;" parent="1" vertex="1">
          <mxGeometry x="800" y="150" width="80" height="50" as="geometry" />
        </mxCell>
        <mxCell id="Kp8BGL8UJKe5xmwrFvUl-62" value="" style="endArrow=none;html=1;rounded=0;exitX=0;exitY=1;exitDx=0;exitDy=0;entryX=0.897;entryY=-0.019;entryDx=0;entryDy=0;entryPerimeter=0;" parent="1" source="Kp8BGL8UJKe5xmwrFvUl-32" target="Kp8BGL8UJKe5xmwrFvUl-2" edge="1">
          <mxGeometry width="50" height="50" relative="1" as="geometry">
            <mxPoint x="460" y="260" as="sourcePoint" />
            <mxPoint x="390" y="260" as="targetPoint" />
          </mxGeometry>
        </mxCell>
        <mxCell id="Kp8BGL8UJKe5xmwrFvUl-64" value="" style="endArrow=none;html=1;rounded=0;exitX=0.5;exitY=1;exitDx=0;exitDy=0;entryX=0.5;entryY=0;entryDx=0;entryDy=0;" parent="1" source="Kp8BGL8UJKe5xmwrFvUl-31" target="Kp8BGL8UJKe5xmwrFvUl-2" edge="1">
          <mxGeometry width="50" height="50" relative="1" as="geometry">
            <mxPoint x="500" y="260" as="sourcePoint" />
            <mxPoint x="374" y="250" as="targetPoint" />
          </mxGeometry>
        </mxCell>
        <mxCell id="Kp8BGL8UJKe5xmwrFvUl-65" value="" style="endArrow=none;html=1;rounded=0;exitX=0.5;exitY=1;exitDx=0;exitDy=0;entryX=0.25;entryY=0;entryDx=0;entryDy=0;" parent="1" source="Kp8BGL8UJKe5xmwrFvUl-33" target="Kp8BGL8UJKe5xmwrFvUl-2" edge="1">
          <mxGeometry width="50" height="50" relative="1" as="geometry">
            <mxPoint x="430" y="250" as="sourcePoint" />
            <mxPoint x="320" y="260" as="targetPoint" />
          </mxGeometry>
        </mxCell>
        <mxCell id="Kp8BGL8UJKe5xmwrFvUl-66" value="" style="endArrow=none;html=1;rounded=0;exitX=1;exitY=1;exitDx=0;exitDy=0;" parent="1" source="Kp8BGL8UJKe5xmwrFvUl-34" target="Kp8BGL8UJKe5xmwrFvUl-2" edge="1">
          <mxGeometry width="50" height="50" relative="1" as="geometry">
            <mxPoint x="260" y="240" as="sourcePoint" />
            <mxPoint x="490" y="160" as="targetPoint" />
          </mxGeometry>
        </mxCell>
        <mxCell id="Kp8BGL8UJKe5xmwrFvUl-69" style="edgeStyle=orthogonalEdgeStyle;rounded=0;orthogonalLoop=1;jettySize=auto;html=1;entryX=1;entryY=0.5;entryDx=0;entryDy=0;exitX=0;exitY=0.5;exitDx=0;exitDy=0;" parent="1" source="fzwteb9I7236CV0HzrI4-1" target="Kp8BGL8UJKe5xmwrFvUl-1" edge="1">
          <mxGeometry relative="1" as="geometry">
            <mxPoint x="340" y="90" as="sourcePoint" />
          </mxGeometry>
        </mxCell>
        <mxCell id="Kp8BGL8UJKe5xmwrFvUl-121" style="edgeStyle=orthogonalEdgeStyle;rounded=0;orthogonalLoop=1;jettySize=auto;html=1;entryX=0;entryY=0.5;entryDx=0;entryDy=0;exitX=1;exitY=0.5;exitDx=0;exitDy=0;" parent="1" source="fzwteb9I7236CV0HzrI4-1" target="Kp8BGL8UJKe5xmwrFvUl-3" edge="1">
          <mxGeometry relative="1" as="geometry">
            <mxPoint x="470" y="90" as="sourcePoint" />
          </mxGeometry>
        </mxCell>
        <mxCell id="Kp8BGL8UJKe5xmwrFvUl-134" style="edgeStyle=orthogonalEdgeStyle;rounded=0;orthogonalLoop=1;jettySize=auto;html=1;entryX=0;entryY=0.5;entryDx=0;entryDy=0;" parent="1" source="Kp8BGL8UJKe5xmwrFvUl-71" target="Kp8BGL8UJKe5xmwrFvUl-2" edge="1">
          <mxGeometry relative="1" as="geometry" />
        </mxCell>
        <mxCell id="Kp8BGL8UJKe5xmwrFvUl-71" value="pueden tener" style="shape=rhombus;perimeter=rhombusPerimeter;whiteSpace=wrap;html=1;align=center;" parent="1" vertex="1">
          <mxGeometry x="80" y="285" width="130" height="85" as="geometry" />
        </mxCell>
        <mxCell id="Kp8BGL8UJKe5xmwrFvUl-127" style="edgeStyle=orthogonalEdgeStyle;rounded=0;orthogonalLoop=1;jettySize=auto;html=1;entryX=0;entryY=0.5;entryDx=0;entryDy=0;" parent="1" source="Kp8BGL8UJKe5xmwrFvUl-72" target="Kp8BGL8UJKe5xmwrFvUl-97" edge="1">
          <mxGeometry relative="1" as="geometry" />
        </mxCell>
        <mxCell id="Kp8BGL8UJKe5xmwrFvUl-72" value="pueden tener" style="shape=rhombus;perimeter=rhombusPerimeter;whiteSpace=wrap;html=1;align=center;" parent="1" vertex="1">
          <mxGeometry x="100" y="410" width="140" height="100" as="geometry" />
        </mxCell>
        <mxCell id="Kp8BGL8UJKe5xmwrFvUl-83" style="edgeStyle=orthogonalEdgeStyle;rounded=0;orthogonalLoop=1;jettySize=auto;html=1;exitX=0;exitY=0.5;exitDx=0;exitDy=0;entryX=1;entryY=0.5;entryDx=0;entryDy=0;" parent="1" source="Kp8BGL8UJKe5xmwrFvUl-80" target="Kp8BGL8UJKe5xmwrFvUl-2" edge="1">
          <mxGeometry relative="1" as="geometry" />
        </mxCell>
        <mxCell id="Kp8BGL8UJKe5xmwrFvUl-80" value="pueden tener" style="shape=rhombus;perimeter=rhombusPerimeter;whiteSpace=wrap;html=1;align=center;" parent="1" vertex="1">
          <mxGeometry x="520" y="200" width="130" height="85" as="geometry" />
        </mxCell>
        <mxCell id="Kp8BGL8UJKe5xmwrFvUl-126" style="edgeStyle=orthogonalEdgeStyle;rounded=0;orthogonalLoop=1;jettySize=auto;html=1;entryX=0.5;entryY=1;entryDx=0;entryDy=0;" parent="1" source="Kp8BGL8UJKe5xmwrFvUl-84" target="Kp8BGL8UJKe5xmwrFvUl-72" edge="1">
          <mxGeometry relative="1" as="geometry" />
        </mxCell>
        <mxCell id="Kp8BGL8UJKe5xmwrFvUl-84" value="Menu" style="rounded=0;whiteSpace=wrap;html=1;" parent="1" vertex="1">
          <mxGeometry x="110" y="600" width="120" height="60" as="geometry" />
        </mxCell>
        <mxCell id="Kp8BGL8UJKe5xmwrFvUl-85" value="&lt;u&gt;id&lt;/u&gt;" style="ellipse;whiteSpace=wrap;html=1;" parent="1" vertex="1">
          <mxGeometry y="560" width="80" height="50" as="geometry" />
        </mxCell>
        <mxCell id="Kp8BGL8UJKe5xmwrFvUl-86" value="nombre" style="ellipse;whiteSpace=wrap;html=1;" parent="1" vertex="1">
          <mxGeometry y="620" width="80" height="50" as="geometry" />
        </mxCell>
        <mxCell id="Kp8BGL8UJKe5xmwrFvUl-87" value="categoria" style="ellipse;whiteSpace=wrap;html=1;" parent="1" vertex="1">
          <mxGeometry x="260" y="610" width="80" height="50" as="geometry" />
        </mxCell>
        <mxCell id="Kp8BGL8UJKe5xmwrFvUl-88" value="precio" style="ellipse;whiteSpace=wrap;html=1;" parent="1" vertex="1">
          <mxGeometry x="200" y="680" width="80" height="50" as="geometry" />
        </mxCell>
        <mxCell id="Kp8BGL8UJKe5xmwrFvUl-89" value="bebidas" style="ellipse;whiteSpace=wrap;html=1;" parent="1" vertex="1">
          <mxGeometry x="105" y="680" width="80" height="50" as="geometry" />
        </mxCell>
        <mxCell id="Kp8BGL8UJKe5xmwrFvUl-90" value="platos" style="ellipse;whiteSpace=wrap;html=1;" parent="1" vertex="1">
          <mxGeometry y="680" width="80" height="50" as="geometry" />
        </mxCell>
        <mxCell id="Kp8BGL8UJKe5xmwrFvUl-91" value="" style="endArrow=none;html=1;rounded=0;exitX=1;exitY=0.5;exitDx=0;exitDy=0;entryX=0;entryY=0.5;entryDx=0;entryDy=0;" parent="1" source="Kp8BGL8UJKe5xmwrFvUl-84" target="Kp8BGL8UJKe5xmwrFvUl-87" edge="1">
          <mxGeometry width="50" height="50" relative="1" as="geometry">
            <mxPoint x="210" y="350" as="sourcePoint" />
            <mxPoint x="170" y="355" as="targetPoint" />
          </mxGeometry>
        </mxCell>
        <mxCell id="Kp8BGL8UJKe5xmwrFvUl-92" value="" style="endArrow=none;html=1;rounded=0;exitX=0.902;exitY=1.023;exitDx=0;exitDy=0;entryX=0.5;entryY=0;entryDx=0;entryDy=0;exitPerimeter=0;" parent="1" source="Kp8BGL8UJKe5xmwrFvUl-84" target="Kp8BGL8UJKe5xmwrFvUl-88" edge="1">
          <mxGeometry width="50" height="50" relative="1" as="geometry">
            <mxPoint x="220" y="360" as="sourcePoint" />
            <mxPoint x="180" y="365" as="targetPoint" />
          </mxGeometry>
        </mxCell>
        <mxCell id="Kp8BGL8UJKe5xmwrFvUl-93" value="" style="endArrow=none;html=1;rounded=0;exitX=0.25;exitY=1;exitDx=0;exitDy=0;entryX=0.5;entryY=0;entryDx=0;entryDy=0;" parent="1" source="Kp8BGL8UJKe5xmwrFvUl-84" target="Kp8BGL8UJKe5xmwrFvUl-89" edge="1">
          <mxGeometry width="50" height="50" relative="1" as="geometry">
            <mxPoint x="230" y="370" as="sourcePoint" />
            <mxPoint x="190" y="375" as="targetPoint" />
          </mxGeometry>
        </mxCell>
        <mxCell id="Kp8BGL8UJKe5xmwrFvUl-94" value="" style="endArrow=none;html=1;rounded=0;exitX=0;exitY=1;exitDx=0;exitDy=0;entryX=1;entryY=0;entryDx=0;entryDy=0;" parent="1" source="Kp8BGL8UJKe5xmwrFvUl-84" target="Kp8BGL8UJKe5xmwrFvUl-90" edge="1">
          <mxGeometry width="50" height="50" relative="1" as="geometry">
            <mxPoint x="240" y="380" as="sourcePoint" />
            <mxPoint x="200" y="385" as="targetPoint" />
          </mxGeometry>
        </mxCell>
        <mxCell id="Kp8BGL8UJKe5xmwrFvUl-95" value="" style="endArrow=none;html=1;rounded=0;entryX=1.008;entryY=0.34;entryDx=0;entryDy=0;entryPerimeter=0;exitX=0;exitY=0.5;exitDx=0;exitDy=0;" parent="1" source="Kp8BGL8UJKe5xmwrFvUl-84" target="Kp8BGL8UJKe5xmwrFvUl-86" edge="1">
          <mxGeometry width="50" height="50" relative="1" as="geometry">
            <mxPoint x="190" y="620" as="sourcePoint" />
            <mxPoint x="210" y="395" as="targetPoint" />
          </mxGeometry>
        </mxCell>
        <mxCell id="Kp8BGL8UJKe5xmwrFvUl-96" value="" style="endArrow=none;html=1;rounded=0;exitX=0;exitY=0;exitDx=0;exitDy=0;entryX=1;entryY=0.5;entryDx=0;entryDy=0;" parent="1" source="Kp8BGL8UJKe5xmwrFvUl-84" target="Kp8BGL8UJKe5xmwrFvUl-85" edge="1">
          <mxGeometry width="50" height="50" relative="1" as="geometry">
            <mxPoint x="260" y="400" as="sourcePoint" />
            <mxPoint x="220" y="405" as="targetPoint" />
          </mxGeometry>
        </mxCell>
        <mxCell id="Kp8BGL8UJKe5xmwrFvUl-97" value="Detalles del Pedido" style="rounded=0;whiteSpace=wrap;html=1;" parent="1" vertex="1">
          <mxGeometry x="300" y="430" width="120" height="60" as="geometry" />
        </mxCell>
        <mxCell id="Kp8BGL8UJKe5xmwrFvUl-98" value="&lt;u&gt;id&lt;/u&gt;" style="ellipse;whiteSpace=wrap;html=1;" parent="1" vertex="1">
          <mxGeometry x="240" y="510" width="80" height="50" as="geometry" />
        </mxCell>
        <mxCell id="Kp8BGL8UJKe5xmwrFvUl-99" value="cantidad" style="ellipse;whiteSpace=wrap;html=1;" parent="1" vertex="1">
          <mxGeometry x="334" y="510" width="80" height="50" as="geometry" />
        </mxCell>
        <mxCell id="Kp8BGL8UJKe5xmwrFvUl-100" value="subtotal" style="ellipse;whiteSpace=wrap;html=1;" parent="1" vertex="1">
          <mxGeometry x="440" y="510" width="80" height="50" as="geometry" />
        </mxCell>
        <mxCell id="Kp8BGL8UJKe5xmwrFvUl-101" value="" style="endArrow=none;html=1;rounded=0;exitX=0.127;exitY=1.017;exitDx=0;exitDy=0;entryX=0.5;entryY=0;entryDx=0;entryDy=0;exitPerimeter=0;" parent="1" source="Kp8BGL8UJKe5xmwrFvUl-97" target="Kp8BGL8UJKe5xmwrFvUl-98" edge="1">
          <mxGeometry width="50" height="50" relative="1" as="geometry">
            <mxPoint x="880" y="460" as="sourcePoint" />
            <mxPoint x="900" y="430" as="targetPoint" />
          </mxGeometry>
        </mxCell>
        <mxCell id="Kp8BGL8UJKe5xmwrFvUl-102" value="" style="endArrow=none;html=1;rounded=0;exitX=0.5;exitY=0;exitDx=0;exitDy=0;entryX=0.62;entryY=1.017;entryDx=0;entryDy=0;entryPerimeter=0;" parent="1" source="Kp8BGL8UJKe5xmwrFvUl-99" target="Kp8BGL8UJKe5xmwrFvUl-97" edge="1">
          <mxGeometry width="50" height="50" relative="1" as="geometry">
            <mxPoint x="810" y="670" as="sourcePoint" />
            <mxPoint x="830" y="640" as="targetPoint" />
          </mxGeometry>
        </mxCell>
        <mxCell id="Kp8BGL8UJKe5xmwrFvUl-103" value="" style="endArrow=none;html=1;rounded=0;exitX=0.375;exitY=0;exitDx=0;exitDy=0;entryX=1;entryY=1;entryDx=0;entryDy=0;exitPerimeter=0;" parent="1" source="Kp8BGL8UJKe5xmwrFvUl-100" target="Kp8BGL8UJKe5xmwrFvUl-97" edge="1">
          <mxGeometry width="50" height="50" relative="1" as="geometry">
            <mxPoint x="810" y="695" as="sourcePoint" />
            <mxPoint x="830" y="665" as="targetPoint" />
          </mxGeometry>
        </mxCell>
        <mxCell id="Kp8BGL8UJKe5xmwrFvUl-104" value="Facturas" style="rounded=0;whiteSpace=wrap;html=1;" parent="1" vertex="1">
          <mxGeometry x="600" y="490" width="120" height="60" as="geometry" />
        </mxCell>
        <mxCell id="Kp8BGL8UJKe5xmwrFvUl-105" value="pago total" style="ellipse;whiteSpace=wrap;html=1;" parent="1" vertex="1">
          <mxGeometry x="750" y="495" width="80" height="50" as="geometry" />
        </mxCell>
        <mxCell id="Kp8BGL8UJKe5xmwrFvUl-106" value="impuestos" style="ellipse;whiteSpace=wrap;html=1;" parent="1" vertex="1">
          <mxGeometry x="740" y="570" width="80" height="50" as="geometry" />
        </mxCell>
        <mxCell id="Kp8BGL8UJKe5xmwrFvUl-107" value="&lt;u&gt;id&lt;/u&gt;" style="ellipse;whiteSpace=wrap;html=1;" parent="1" vertex="1">
          <mxGeometry x="620" y="585" width="80" height="50" as="geometry" />
        </mxCell>
        <mxCell id="Kp8BGL8UJKe5xmwrFvUl-108" value="" style="endArrow=none;html=1;rounded=0;entryX=0.5;entryY=1;entryDx=0;entryDy=0;exitX=0.5;exitY=0;exitDx=0;exitDy=0;" parent="1" source="Kp8BGL8UJKe5xmwrFvUl-107" target="Kp8BGL8UJKe5xmwrFvUl-104" edge="1">
          <mxGeometry width="50" height="50" relative="1" as="geometry">
            <mxPoint x="680" y="580" as="sourcePoint" />
            <mxPoint x="980" y="310" as="targetPoint" />
          </mxGeometry>
        </mxCell>
        <mxCell id="Kp8BGL8UJKe5xmwrFvUl-109" value="" style="endArrow=none;html=1;rounded=0;exitX=0;exitY=0;exitDx=0;exitDy=0;entryX=1;entryY=1;entryDx=0;entryDy=0;" parent="1" source="Kp8BGL8UJKe5xmwrFvUl-106" target="Kp8BGL8UJKe5xmwrFvUl-104" edge="1">
          <mxGeometry width="50" height="50" relative="1" as="geometry">
            <mxPoint x="970" y="350" as="sourcePoint" />
            <mxPoint x="990" y="320" as="targetPoint" />
          </mxGeometry>
        </mxCell>
        <mxCell id="Kp8BGL8UJKe5xmwrFvUl-110" value="" style="endArrow=none;html=1;rounded=0;exitX=0;exitY=0.5;exitDx=0;exitDy=0;entryX=1;entryY=0.5;entryDx=0;entryDy=0;" parent="1" source="Kp8BGL8UJKe5xmwrFvUl-105" target="Kp8BGL8UJKe5xmwrFvUl-104" edge="1">
          <mxGeometry width="50" height="50" relative="1" as="geometry">
            <mxPoint x="980" y="360" as="sourcePoint" />
            <mxPoint x="1000" y="330" as="targetPoint" />
          </mxGeometry>
        </mxCell>
        <mxCell id="Kp8BGL8UJKe5xmwrFvUl-122" style="edgeStyle=orthogonalEdgeStyle;rounded=0;orthogonalLoop=1;jettySize=auto;html=1;entryX=1;entryY=0.75;entryDx=0;entryDy=0;" parent="1" source="Kp8BGL8UJKe5xmwrFvUl-118" target="Kp8BGL8UJKe5xmwrFvUl-2" edge="1">
          <mxGeometry relative="1" as="geometry" />
        </mxCell>
        <mxCell id="Kp8BGL8UJKe5xmwrFvUl-118" value="pueden tener" style="shape=rhombus;perimeter=rhombusPerimeter;whiteSpace=wrap;html=1;align=center;" parent="1" vertex="1">
          <mxGeometry x="600" y="265" width="130" height="85" as="geometry" />
        </mxCell>
        <mxCell id="Kp8BGL8UJKe5xmwrFvUl-128" value="" style="endArrow=none;html=1;rounded=0;entryX=0;entryY=0.5;entryDx=0;entryDy=0;exitX=0.83;exitY=1.006;exitDx=0;exitDy=0;exitPerimeter=0;" parent="1" source="Kp8BGL8UJKe5xmwrFvUl-2" target="Kp8BGL8UJKe5xmwrFvUl-129" edge="1">
          <mxGeometry relative="1" as="geometry">
            <mxPoint x="440" y="320" as="sourcePoint" />
            <mxPoint x="550" y="430" as="targetPoint" />
            <Array as="points">
              <mxPoint x="400" y="320" />
              <mxPoint x="460" y="320" />
              <mxPoint x="460" y="460" />
            </Array>
          </mxGeometry>
        </mxCell>
        <mxCell id="Kp8BGL8UJKe5xmwrFvUl-129" value="puede tener una&amp;nbsp;" style="shape=rhombus;perimeter=rhombusPerimeter;whiteSpace=wrap;html=1;align=center;" parent="1" vertex="1">
          <mxGeometry x="490" y="415" width="120" height="90" as="geometry" />
        </mxCell>
        <mxCell id="Kp8BGL8UJKe5xmwrFvUl-130" value="" style="endArrow=none;html=1;rounded=0;exitX=1;exitY=0.5;exitDx=0;exitDy=0;entryX=0.5;entryY=0;entryDx=0;entryDy=0;" parent="1" source="Kp8BGL8UJKe5xmwrFvUl-129" target="Kp8BGL8UJKe5xmwrFvUl-104" edge="1">
          <mxGeometry relative="1" as="geometry">
            <mxPoint x="770" y="390" as="sourcePoint" />
            <mxPoint x="660" y="480" as="targetPoint" />
            <Array as="points">
              <mxPoint x="660" y="460" />
            </Array>
          </mxGeometry>
        </mxCell>
        <mxCell id="Kp8BGL8UJKe5xmwrFvUl-133" style="edgeStyle=orthogonalEdgeStyle;rounded=0;orthogonalLoop=1;jettySize=auto;html=1;exitX=0.5;exitY=1;exitDx=0;exitDy=0;entryX=0.5;entryY=0;entryDx=0;entryDy=0;" parent="1" source="Kp8BGL8UJKe5xmwrFvUl-131" target="Kp8BGL8UJKe5xmwrFvUl-97" edge="1">
          <mxGeometry relative="1" as="geometry" />
        </mxCell>
        <mxCell id="Kp8BGL8UJKe5xmwrFvUl-131" value="pedidos puede&lt;div&gt;ser mas detallada&lt;/div&gt;" style="shape=rhombus;perimeter=rhombusPerimeter;whiteSpace=wrap;html=1;align=center;" parent="1" vertex="1">
          <mxGeometry x="295" y="320" width="130" height="90" as="geometry" />
        </mxCell>
        <mxCell id="Kp8BGL8UJKe5xmwrFvUl-139" value="n" style="text;html=1;align=center;verticalAlign=middle;whiteSpace=wrap;rounded=0;" parent="1" vertex="1">
          <mxGeometry x="235" y="80" width="60" height="30" as="geometry" />
        </mxCell>
        <mxCell id="Kp8BGL8UJKe5xmwrFvUl-140" value="m" style="text;html=1;align=center;verticalAlign=middle;whiteSpace=wrap;rounded=0;" parent="1" vertex="1">
          <mxGeometry x="560" y="90" width="60" height="30" as="geometry" />
        </mxCell>
        <mxCell id="Kp8BGL8UJKe5xmwrFvUl-141" value="1" style="text;html=1;align=center;verticalAlign=middle;whiteSpace=wrap;rounded=0;" parent="1" vertex="1">
          <mxGeometry x="175" y="140" width="60" height="30" as="geometry" />
        </mxCell>
        <mxCell id="Kp8BGL8UJKe5xmwrFvUl-144" value="n" style="text;html=1;align=center;verticalAlign=middle;whiteSpace=wrap;rounded=0;" parent="1" vertex="1">
          <mxGeometry x="250" y="270" width="60" height="30" as="geometry" />
        </mxCell>
        <mxCell id="Kp8BGL8UJKe5xmwrFvUl-145" value="1" style="text;html=1;align=center;verticalAlign=middle;whiteSpace=wrap;rounded=0;" parent="1" vertex="1">
          <mxGeometry x="310" y="300" width="60" height="30" as="geometry" />
        </mxCell>
        <mxCell id="Kp8BGL8UJKe5xmwrFvUl-146" value="n" style="text;html=1;align=center;verticalAlign=middle;whiteSpace=wrap;rounded=0;" parent="1" vertex="1">
          <mxGeometry x="410" y="240" width="60" height="30" as="geometry" />
        </mxCell>
        <mxCell id="Kp8BGL8UJKe5xmwrFvUl-147" value="n" style="text;html=1;align=center;verticalAlign=middle;whiteSpace=wrap;rounded=0;" parent="1" vertex="1">
          <mxGeometry x="414" y="285" width="60" height="30" as="geometry" />
        </mxCell>
        <mxCell id="Kp8BGL8UJKe5xmwrFvUl-150" value="1" style="text;html=1;align=center;verticalAlign=middle;whiteSpace=wrap;rounded=0;" parent="1" vertex="1">
          <mxGeometry x="380" y="292.5" width="60" height="30" as="geometry" />
        </mxCell>
        <mxCell id="Kp8BGL8UJKe5xmwrFvUl-151" value="1" style="text;html=1;align=center;verticalAlign=middle;whiteSpace=wrap;rounded=0;" parent="1" vertex="1">
          <mxGeometry x="620" y="150" width="60" height="30" as="geometry" />
        </mxCell>
        <mxCell id="Kp8BGL8UJKe5xmwrFvUl-155" value="1" style="text;html=1;align=center;verticalAlign=middle;whiteSpace=wrap;rounded=0;" parent="1" vertex="1">
          <mxGeometry x="720" y="225" width="60" height="30" as="geometry" />
        </mxCell>
        <mxCell id="Kp8BGL8UJKe5xmwrFvUl-157" value="1" style="text;html=1;align=center;verticalAlign=middle;whiteSpace=wrap;rounded=0;" parent="1" vertex="1">
          <mxGeometry x="650" y="460" width="60" height="30" as="geometry" />
        </mxCell>
        <mxCell id="Kp8BGL8UJKe5xmwrFvUl-158" value="n" style="text;html=1;align=center;verticalAlign=middle;whiteSpace=wrap;rounded=0;" parent="1" vertex="1">
          <mxGeometry x="310" y="400" width="60" height="30" as="geometry" />
        </mxCell>
        <mxCell id="Kp8BGL8UJKe5xmwrFvUl-159" value="n" style="text;html=1;align=center;verticalAlign=middle;whiteSpace=wrap;rounded=0;" parent="1" vertex="1">
          <mxGeometry x="250" y="430" width="60" height="30" as="geometry" />
        </mxCell>
        <mxCell id="Kp8BGL8UJKe5xmwrFvUl-162" value="1" style="text;html=1;align=center;verticalAlign=middle;whiteSpace=wrap;rounded=0;" parent="1" vertex="1">
          <mxGeometry x="160" y="570" width="60" height="30" as="geometry" />
        </mxCell>
        <mxCell id="fzwteb9I7236CV0HzrI4-1" value="ambos pueden&lt;div&gt;ser muchos&lt;/div&gt;" style="shape=rhombus;perimeter=rhombusPerimeter;whiteSpace=wrap;html=1;align=center;" vertex="1" parent="1">
          <mxGeometry x="349" y="55" width="130" height="65" as="geometry" />
        </mxCell>
      </root>
    </mxGraphModel>
  </diagram>
</mxfile>
